<svg id="visual" viewBox="0 0 900 600" width="900" height="600" xmlns="http://www.w3.org/2000/svg" xmlns:xlink="http://www.w3.org/1999/xlink" version="1.1"><g transform="translate(424.716129800315 305.70581635538247)"><path d="M183.8 -212.9C244.2 -168.4 303.3 -116.1 322.8 -50.3C342.4 15.6 322.3 95 279.9 155C237.4 215 172.6 255.5 104 276.4C35.5 297.3 -36.8 298.5 -108.9 280.4C-181 262.3 -252.9 224.9 -273.2 168.2C-293.4 111.4 -262.1 35.4 -245.9 -41.1C-229.7 -117.5 -228.6 -194.4 -190.2 -242.7C-151.7 -291.1 -75.8 -311.1 -7.1 -302.6C61.7 -294.2 123.4 -257.4 183.8 -212.9" fill="#BB004B"></path></g></svg>